<svg width="33" height="25" viewBox="0 0 33 25" fill="none" xmlns="http://www.w3.org/2000/svg">
<path d="M29.8691 22.2344H3.13031C2.40927 22.2344 1.82471 22.8105 1.82471 23.5211C1.82471 24.2317 2.40927 24.8078 3.13031 24.8078H29.8691C30.5901 24.8078 31.1747 24.2317 31.1747 23.5211C31.1747 22.8105 30.5901 22.2344 29.8691 22.2344Z" fill="#B6B6B6"/>
<path d="M16.609 13.8513C13.1417 13.8513 10.2244 16.1732 9.37108 19.3251C9.21267 19.9101 9.66075 20.4841 10.2749 20.4841H22.9428C23.5573 20.4841 24.005 19.9101 23.8466 19.3251C22.9929 16.1732 20.076 13.8513 16.6087 13.8513H16.609Z" fill="#B6B6B6"/>
<path d="M7.80326 18.7934C8.05115 18.0464 7.63788 17.2429 6.87993 16.9986L2.39318 15.552C1.63523 15.3077 0.819837 15.715 0.571947 16.4619C0.324056 17.2089 0.737323 18.0125 1.49527 18.2568L5.98202 19.7034C6.73997 19.9477 7.55536 19.5404 7.80326 18.7934Z" fill="#B6B6B6"/>
<path d="M8.92403 13.8399C9.39161 14.4767 10.294 14.6194 10.9402 14.1586C11.5864 13.6978 11.7313 12.8085 11.2637 12.1716L8.49648 8.40216C8.0289 7.76534 7.12647 7.6226 6.48028 8.08341C5.8341 8.54421 5.68926 9.43357 6.15684 10.0704L8.92403 13.8399Z" fill="#B6B6B6"/>
<path d="M21.6852 13.7342C22.3293 14.1974 23.2328 14.0581 23.7028 13.4233L26.4853 9.66481C26.9553 9.03005 26.8139 8.13966 26.1698 7.67645C25.5257 7.21324 24.6223 7.35255 24.1522 7.98732L21.3697 11.7458C20.8997 12.3806 21.0411 13.271 21.6852 13.7342Z" fill="#B6B6B6"/>
<path d="M32.4297 15.804C32.185 15.056 31.371 14.6453 30.612 14.8869L26.1193 16.3156C25.3603 16.5568 24.9436 17.359 25.1887 18.107C25.4334 18.855 26.2474 19.2657 27.0064 19.0242L31.4991 17.5954C32.2581 17.3542 32.6748 16.552 32.4297 15.804Z" fill="#B6B6B6"/>
<path d="M13.2851 5.93363C13.6193 5.93363 13.9532 5.80805 14.2084 5.55689L15.194 4.58553V11.1209C15.194 11.8315 15.7786 12.4076 16.4996 12.4076C17.2207 12.4076 17.8052 11.8315 17.8052 11.1209V4.58553L18.7909 5.55689C19.0457 5.80805 19.38 5.93363 19.7142 5.93363C20.0484 5.93363 20.3823 5.80805 20.6375 5.55689C21.1472 5.05457 21.1472 4.23967 20.6375 3.73734L17.4229 0.569346C17.2795 0.427982 17.111 0.326419 16.9317 0.264658C16.9296 0.263972 16.9275 0.263286 16.9258 0.2626C16.8704 0.243728 16.814 0.228974 16.7569 0.217651C16.7486 0.215936 16.7402 0.214563 16.7319 0.213191C16.7061 0.20873 16.68 0.204956 16.6539 0.201868C16.6305 0.199123 16.6069 0.197064 16.5832 0.195349C16.5553 0.193633 16.5275 0.192261 16.4996 0.192261C16.4446 0.192261 16.3893 0.196035 16.3346 0.202897C16.3081 0.206329 16.2817 0.210103 16.2552 0.214906C16.0066 0.261227 15.7692 0.379259 15.5767 0.569003L12.3621 3.737C11.8524 4.23932 11.8524 5.05422 12.3621 5.55655C12.6169 5.80771 12.9512 5.93329 13.2854 5.93329L13.2851 5.93363Z" fill="#B6B6B6"/>
</svg>
