<svg width="33" height="27" viewBox="0 0 33 27" fill="none" xmlns="http://www.w3.org/2000/svg">
<path d="M29.8692 24.1565H3.13037C2.40933 24.1565 1.82477 24.7872 1.82477 25.5651C1.82477 26.343 2.40933 26.9737 3.13037 26.9737H29.8692C30.5902 26.9737 31.1748 26.343 31.1748 25.5651C31.1748 24.7872 30.5902 24.1565 29.8692 24.1565Z" fill="#B6B6B6"/>
<path d="M16.6091 14.9795C13.1417 14.9795 10.2245 17.5213 9.37114 20.9718C9.21273 21.6122 9.66081 22.2407 10.275 22.2407H22.9428C23.5573 22.2407 24.0051 21.6122 23.8466 20.9718C22.993 17.5213 20.0761 14.9795 16.6087 14.9795H16.6091Z" fill="#B6B6B6"/>
<path d="M7.80338 20.3896C8.05127 19.5718 7.638 18.6921 6.88005 18.4247L2.3933 16.841C1.63535 16.5736 0.819959 17.0195 0.572069 17.8372C0.324178 18.6549 0.737445 19.5346 1.49539 19.8021L5.98215 21.3857C6.74009 21.6531 7.55549 21.2073 7.80338 20.3896Z" fill="#B6B6B6"/>
<path d="M8.92409 14.9665C9.39167 15.6637 10.2941 15.8199 10.9403 15.3155C11.5865 14.811 11.7313 13.8374 11.2637 13.1402L8.49655 9.01363C8.02897 8.31648 7.12653 8.16022 6.48034 8.66468C5.83416 9.16914 5.68932 10.1428 6.1569 10.8399L8.92409 14.9665Z" fill="#B6B6B6"/>
<path d="M21.6853 14.8511C22.3294 15.3582 23.2329 15.2057 23.7029 14.5108L26.4854 10.3962C26.9554 9.70128 26.8141 8.72654 26.17 8.21945C25.5259 7.71236 24.6224 7.86486 24.1524 8.55977L21.3699 12.6743C20.8998 13.3692 21.0412 14.344 21.6853 14.8511Z" fill="#B6B6B6"/>
<path d="M32.4299 17.1171C32.1851 16.2982 31.3711 15.8486 30.6122 16.113L26.1195 17.6771C25.3605 17.9412 24.9437 18.8194 25.1888 19.6382C25.4336 20.4571 26.2476 20.9067 27.0066 20.6423L31.4993 19.0782C32.2583 18.8141 32.675 17.9359 32.4299 17.1171Z" fill="#B6B6B6"/>
<path d="M15.5767 12.986C15.6418 13.0562 15.7118 13.1171 15.7856 13.1693C16.0018 13.3222 16.2508 13.3984 16.4997 13.3984C16.8339 13.3984 17.1678 13.2609 17.423 12.986L20.6376 9.51785C21.1473 8.96794 21.1473 8.07584 20.6376 7.52592C20.1279 6.97601 19.301 6.97601 18.7913 7.52592L17.8057 8.58931V1.43483C17.8057 0.656915 17.2211 0.0262451 16.5001 0.0262451C15.779 0.0262451 15.1944 0.656915 15.1944 1.43483V8.58931L14.2088 7.52592C13.6991 6.97601 12.8722 6.97601 12.3625 7.52592C11.8528 8.07584 11.8528 8.96794 12.3625 9.51785L15.5771 12.986H15.5767Z" fill="#B6B6B6"/>
</svg>
