<svg width="24" height="24" viewBox="0 0 24 24" fill="none" xmlns="http://www.w3.org/2000/svg">
<path d="M10.303 2.4157C10.2304 2.12258 9.93355 1.94366 9.63989 2.01609C9.34623 2.08851 9.16699 2.38485 9.23954 2.67797L9.65388 4.35186L8.33354 3.59102C8.07157 3.44006 7.7366 3.52967 7.58536 3.79116C7.43413 4.05265 7.52389 4.38701 7.78587 4.53797L10.0184 5.82444L11.199 10.5943L7.27804 7.738L6.82907 5.19619C6.77655 4.89884 6.49248 4.70029 6.19458 4.75271C5.89668 4.80514 5.69777 5.08869 5.75029 5.38604L6.00147 6.80808L4.64835 5.8224C4.40401 5.6444 4.06137 5.69783 3.88305 5.94173C3.70473 6.18562 3.75826 6.52763 4.0026 6.70563L5.39815 7.72221L3.89668 7.9866C3.59879 8.03906 3.3999 8.32263 3.45245 8.61998C3.50501 8.91732 3.7891 9.11585 4.08699 9.06339L6.62562 8.61637L10.6017 11.5128L5.75881 11.8405L3.77773 10.1814C3.546 9.98738 3.20053 10.0176 3.0061 10.2489C2.81168 10.4802 2.84192 10.825 3.07366 11.0191L4.18194 11.9472L2.51068 12.0603C2.20888 12.0808 1.98081 12.3415 2.00128 12.6428C2.02174 12.944 2.28298 13.1717 2.58478 13.1513L4.30814 13.0346L3.32828 14.2002C3.13384 14.4315 3.16406 14.7764 3.39578 14.9705C3.62751 15.1645 3.97298 15.1344 4.16742 14.9031L5.82437 12.932L10.7353 12.5997L7.23671 15.9579H4.65059C4.3481 15.9579 4.10288 16.2026 4.10288 16.5046C4.10288 16.8065 4.3481 17.0513 4.65059 17.0513H6.0976L4.89006 18.2104C4.67203 18.4197 4.66525 18.7658 4.87492 18.9834C5.08459 19.201 5.43131 19.2078 5.64935 18.9985L6.89443 17.8034V19.3252C6.89443 19.6271 7.13965 19.8719 7.44214 19.8719C7.74463 19.8719 7.98985 19.6271 7.98985 19.3252V16.7519L11.5376 13.3465L11.02 18.1641L9.03921 19.8229C8.80748 20.017 8.77723 20.3618 8.97166 20.5931C9.16608 20.8245 9.51155 20.8546 9.74328 20.6606L10.8515 19.7325L10.6729 21.395C10.6407 21.6952 10.8583 21.9646 11.1591 21.9968C11.4599 22.029 11.7298 21.8118 11.7621 21.5115L11.9463 19.7969L12.9263 20.9629C13.1208 21.1942 13.4662 21.2244 13.698 21.0303C13.9297 20.8363 13.96 20.4914 13.7655 20.2601L12.1083 18.2885L12.6332 13.4035L15.3392 17.4263L14.8902 19.9681C14.8377 20.2654 15.0366 20.549 15.3345 20.6014C15.6324 20.6538 15.9165 20.4553 15.969 20.1579L16.2201 18.736L17.1538 20.124C17.3224 20.3747 17.6627 20.4414 17.9138 20.2731C18.1649 20.1048 18.2318 19.7651 18.0632 19.5145L17.1003 18.083L18.6017 18.3474C18.8996 18.3998 19.1837 18.2013 19.2363 17.9039C19.2888 17.6066 19.0899 17.323 18.792 17.2706L16.2531 16.8235L13.5094 12.7446L18.1727 14.09L19.4657 16.3253C19.6169 16.5868 19.9519 16.6764 20.2138 16.5254C20.4758 16.3744 20.5656 16.0401 20.4143 15.7786L19.6909 14.528L21.3001 14.9922C21.5907 15.0761 21.8943 14.9089 21.9783 14.6188C22.0623 14.3288 21.8948 14.0257 21.6042 13.9418L19.9449 13.4631L21.2651 12.7023C21.5271 12.5514 21.6168 12.217 21.4656 11.9555C21.3144 11.694 20.9794 11.6044 20.7174 11.7554L18.4849 13.0419L13.7559 11.6776L18.1948 9.71606L20.6248 10.5989C20.909 10.7021 21.2233 10.5559 21.3268 10.2721C21.4302 9.9884 21.2837 9.67467 20.9994 9.5714L19.6399 9.07748L21.1715 8.40068C21.4481 8.27846 21.5731 7.95555 21.4506 7.67946C21.3282 7.40337 21.0047 7.27863 20.7281 7.40086L19.1485 8.09886L19.6699 6.66894C19.7734 6.38521 19.6268 6.07148 19.3426 5.96821C19.0583 5.86494 18.744 6.01124 18.6406 6.29497L17.7589 8.71293L13.2584 10.7017L15.3956 6.35124L17.8252 5.46854C18.1095 5.36527 18.256 5.05155 18.1526 4.76782C18.0491 4.48409 17.7348 4.3378 17.4505 4.44106L16.0914 4.93486L16.8286 3.43408C16.9618 3.16298 16.8496 2.83544 16.578 2.70251C16.3064 2.56957 15.9783 2.68157 15.8451 2.95267L15.0846 4.5007L14.5631 3.07052C14.4597 2.78679 14.1454 2.6405 13.8611 2.74377C13.5769 2.84704 13.4303 3.16076 13.5338 3.44449L14.4155 5.86269L12.2482 10.2744L11.0839 5.57049L12.3768 3.33517C12.5281 3.07368 12.4383 2.73932 12.1764 2.58835C11.9144 2.43737 11.5794 2.52696 11.4282 2.78845L10.7048 4.03905L10.303 2.4157Z" fill="#B6B6B6"/>
</svg>
