<svg width="24" height="24" viewBox="0 0 24 24" fill="none" xmlns="http://www.w3.org/2000/svg">
<path d="M11.7456 16.3308C14.191 16.3308 16.1734 14.3484 16.1734 11.903C16.1734 9.45752 14.191 7.4751 11.7456 7.4751C9.30011 7.4751 7.31769 9.45752 7.31769 11.903C7.31769 14.3484 9.30011 16.3308 11.7456 16.3308Z" fill="#B6B6B6"/>
<path d="M11.9514 21.8044L11.9516 21.8044C12.423 21.8053 12.8058 21.4239 12.8068 20.9526L12.8121 18.1619C12.813 17.6905 12.4316 17.3077 11.9603 17.3068L11.9601 17.3068C11.4887 17.3059 11.1059 17.6872 11.105 18.1586L11.0996 20.9493C11.0987 21.4206 11.4801 21.8035 11.9514 21.8044Z" fill="#B6B6B6"/>
<path d="M6.09268 20.0343L6.09284 20.0344C6.47365 20.3122 7.00754 20.2287 7.28533 19.8478L8.92999 17.5933C9.20778 17.2125 9.12427 16.6786 8.74347 16.4008L8.7433 16.4007C8.3625 16.1229 7.8286 16.2064 7.55081 16.5872L5.90615 18.8418C5.62836 19.2226 5.71187 19.7565 6.09268 20.0343Z" fill="#B6B6B6"/>
<path d="M2.39316 15.159L2.39322 15.1592C2.53801 15.6078 3.01903 15.8541 3.4676 15.7093L6.12336 14.852C6.57192 14.7072 6.81818 14.2262 6.67338 13.7776L6.67332 13.7774C6.52852 13.3288 6.0475 13.0826 5.59894 13.2274L2.94318 14.0847C2.49461 14.2295 2.24836 14.7105 2.39316 15.159Z" fill="#B6B6B6"/>
<path d="M2.26536 9.04055L2.26529 9.04074C2.11878 9.48875 2.36318 9.9707 2.81119 10.1172L5.46364 10.9847C5.91164 11.1312 6.3936 10.8868 6.54012 10.4388L6.54018 10.4386C6.6867 9.99059 6.4423 9.50864 5.99429 9.36212L3.34184 8.49465C2.89383 8.34813 2.41188 8.59254 2.26536 9.04055Z" fill="#B6B6B6"/>
<path d="M5.75837 4.01456L5.7582 4.01469C5.37634 4.29101 5.29078 4.82458 5.5671 5.20645L7.20309 7.46731C7.47942 7.84918 8.01299 7.93474 8.39485 7.65841L8.39502 7.65829C8.77689 7.38197 8.86245 6.8484 8.58612 6.46653L6.95013 4.20567C6.67381 3.8238 6.14024 3.73824 5.75837 4.01456Z" fill="#B6B6B6"/>
<path d="M11.5382 2.00164L11.538 2.00164C11.0666 2.00073 10.6838 2.38211 10.6829 2.85347L10.6775 5.64416C10.6766 6.11551 11.058 6.49836 11.5293 6.49926L11.5295 6.49926C12.0009 6.50017 12.3837 6.11879 12.3847 5.64743L12.39 2.85674C12.3909 2.38539 12.0095 2.00254 11.5382 2.00164Z" fill="#B6B6B6"/>
<path d="M17.3978 3.77092L17.3976 3.7708C17.0168 3.49301 16.4829 3.57652 16.2051 3.95733L14.5605 6.21189C14.2827 6.5927 14.3662 7.12659 14.747 7.40438L14.7472 7.4045C15.128 7.68229 15.6619 7.59878 15.9397 7.21798L17.5843 4.96341C17.8621 4.58261 17.7786 4.04871 17.3978 3.77092Z" fill="#B6B6B6"/>
<path d="M21.0986 8.64638L21.0985 8.64618C20.9537 8.19762 20.4727 7.95136 20.0242 8.09616L17.3684 8.95344C16.9198 9.09823 16.6736 9.57925 16.8184 10.0278L16.8184 10.028C16.9632 10.4766 17.4443 10.7228 17.8928 10.578L20.5486 9.72076C20.9971 9.57596 21.2434 9.09495 21.0986 8.64638Z" fill="#B6B6B6"/>
<path d="M21.2265 14.7661L21.2266 14.7659C21.3731 14.3179 21.1287 13.8359 20.6807 13.6894L18.0282 12.822C17.5802 12.6754 17.0983 12.9198 16.9518 13.3678L16.9517 13.368C16.8052 13.816 17.0496 14.298 17.4976 14.4445L20.15 15.312C20.5981 15.4585 21.08 15.2141 21.2265 14.7661Z" fill="#B6B6B6"/>
<path d="M17.7322 19.7922L17.7324 19.7921C18.1143 19.5158 18.1998 18.9822 17.9235 18.6003L16.2875 16.3395C16.0112 15.9576 15.4776 15.872 15.0957 16.1483L15.0956 16.1485C14.7137 16.4248 14.6282 16.9584 14.9045 17.3402L16.5405 19.6011C16.8168 19.983 17.3504 20.0685 17.7322 19.7922Z" fill="#B6B6B6"/>
</svg>
